<svg width="183" height="183" viewBox="0 0 183 183" fill="none" xmlns="http://www.w3.org/2000/svg">
<circle cx="91.5" cy="91.5" r="86.5" fill="#F4D7DD" stroke="#FBFAFF" stroke-width="10"/>
<circle cx="91.5" cy="91.5" r="81.5" fill="#FBFAFF" stroke="#E3E1EB" stroke-width="10"/>
<circle cx="91.5" cy="91.5" r="81.5" fill="#F4D7DD" stroke="#F74857" stroke-width="10"/>
<path d="M91.4062 131.438C91.4062 131.438 50 108.25 50 80.0938C50 75.1163 51.7245 70.2925 54.8802 66.4432C58.0359 62.5939 62.4278 59.9568 67.3086 58.9807C72.1895 58.0045 77.2578 58.7495 81.6512 61.089C86.0446 63.4285 89.4918 67.2179 91.4062 71.8125V71.8125C93.3207 67.2179 96.7679 63.4285 101.161 61.089C105.555 58.7495 110.623 58.0045 115.504 58.9807C120.385 59.9568 124.777 62.5939 127.932 66.4432C131.088 70.2925 132.812 75.1163 132.812 80.0938C132.812 108.25 91.4062 131.438 91.4062 131.438Z" stroke="white" stroke-width="18" stroke-linecap="round" stroke-linejoin="round"/>
<path d="M91.4062 131.438C91.4062 131.438 50 108.25 50 80.0938C50 75.1163 51.7245 70.2925 54.8802 66.4432C58.0359 62.5939 62.4278 59.9568 67.3086 58.9807C72.1895 58.0045 77.2578 58.7495 81.6512 61.089C86.0446 63.4285 89.4918 67.2179 91.4062 71.8125C93.3207 67.2179 96.7679 63.4285 101.161 61.089C105.555 58.7495 110.623 58.0045 115.504 58.9807C120.385 59.9568 124.777 62.5939 127.932 66.4432C131.088 70.2925 132.812 75.1163 132.812 80.0938C132.812 108.25 91.4062 131.438 91.4062 131.438Z" fill="#F74857" stroke="#F74857" stroke-width="7" stroke-linecap="round" stroke-linejoin="round"/>
</svg>
